<?xml version="1.0" encoding="UTF-8"?> <!-- Generator: Adobe Illustrator 23.0.1, SVG Export Plug-In . SVG Version: 6.00 Build 0) --> <svg xmlns="http://www.w3.org/2000/svg" xmlns:xlink="http://www.w3.org/1999/xlink" id="Lager_1" x="0px" y="0px" viewBox="0 0 422.92914 108.92913" style="enable-background:new 0 0 422.92914 108.92913;" xml:space="preserve"> <style type="text/css"> .st0{fill:#EE7570;} </style> <g> <g> <path class="st0" d="M138.5,54.46457c0-10.46917,8.05527-18.40102,18.81747-18.40102 c10.72083,0,18.73543,7.89048,18.73543,18.40102s-8.0146,18.40103-18.73543,18.40103 C146.55527,72.86559,138.5,64.93373,138.5,54.46457z M168.32237,54.46457c0-6.39706-4.7216-11.2014-11.0049-11.2014 s-11.08694,4.85399-11.08694,11.2014s4.80365,11.2014,11.08694,11.2014S168.32237,60.863,168.32237,54.46457z"></path> <path class="st0" d="M216.95667,48.95971c0,6.95279-5.36697,12.12669-12.44662,12.12669h-5.94061v11.00972h-7.62848V36.83301 h13.56909C211.58142,36.83301,216.95667,41.99865,216.95667,48.95971z M209.22751,48.95971 c0-2.93032-2.02432-5.05946-5.05118-5.05946h-5.6069v10.12029h5.6069C207.20319,54.02054,209.22751,51.8914,209.22751,48.95971z"></path> <path class="st0" d="M255.56195,43.91404h-9.80449v28.18208h-7.62987V43.91404h-9.8045v-7.08103h27.23886V43.91404z"></path> <path class="st0" d="M272.29529,36.83301h7.62848v35.26311h-7.62848V36.83301z"></path> <path class="st0" d="M313.841,72.85732c-10.35474,0-18.20935-7.93737-18.20935-18.35138 c0-10.49537,7.85461-18.43274,18.20935-18.43274c8.58133,0,15.42795,5.67861,17.06342,14.04623h-7.64917 c-1.44241-4.16312-4.96844-6.76525-9.41565-6.76525c-5.9668,0-10.47742,4.80848-10.47742,11.15176 s4.51062,11.06902,10.47742,11.06902c4.63889,0,8.21594-2.80346,9.48459-7.26857h7.68915 c-1.59409,8.71925-8.44067,14.54955-17.17374,14.54955L313.841,72.85732z"></path> <path class="st0" d="M344.43701,54.46457c0-10.46917,8.0546-18.40102,18.81747-18.40102 c10.72153,0,18.73474,7.89048,18.73474,18.40102s-8.01321,18.40103-18.73474,18.40103 C352.49161,72.86559,344.43701,64.93373,344.43701,54.46457z M374.26007,54.46457c0-6.39706-4.72162-11.2014-11.00558-11.2014 c-6.284,0-11.08694,4.85399-11.08694,11.2014s4.80295,11.2014,11.08694,11.2014 C369.53845,65.66597,374.26007,60.863,374.26007,54.46457z"></path> <path class="st0" d="M394.92151,60.66995h7.68918c0,3.40744,2.81723,5.05118,5.93509,5.05118 c2.87241,0,5.67999-1.5155,5.67999-4.14382c0-2.7345-3.21576-3.48605-7.03967-4.37824 c-5.31592-1.31002-11.77365-2.8531-11.77365-10.45124c0-6.76386,4.98221-10.57397,12.78998-10.57397 c8.10559,0,12.71411,4.32722,12.71411,11.35309h-7.53885c0-3.0365-2.50558-4.46098-5.3573-4.46098 c-2.47388,0-4.97809,1.0494-4.97809,3.3578c0,2.48077,3.06268,3.23232,6.79556,4.12589 c5.37662,1.35967,12.12671,3.0365,12.12671,10.93526c0,7.61607-6.06747,11.31172-13.36777,11.31172 C400.49945,72.79664,394.92151,68.24879,394.92151,60.66995z"></path> </g> <g> <path class="st0" d="M106.30992,54.46458c0-14.06935-5.47892-27.29672-15.42749-37.2452 c-3.82085-3.82089-8.12675-6.97956-12.77684-9.42466l0.00002,22.22521c6.2588,6.26482,10.13477,14.91058,10.13477,24.44466 c0,9.53406-3.87595,18.17977-10.13473,24.4446l0.00002,22.22523c4.65007-2.4451,8.95592-5.60371,12.77675-9.42452 C100.831,81.76122,106.30992,68.53393,106.30992,54.46458z"></path> <path class="st0" d="M53.63725,89.06772c-19.0802,0-34.60314-15.52294-34.60314-34.60314s15.52294-34.60316,34.60314-34.60316 c5.54297,0,10.78448,1.3122,15.43365,3.63896L69.07087,4.07832c-4.93757-1.50557-10.1255-2.28645-15.43362-2.28645 c-14.06937,0-27.29671,5.47892-37.24521,15.42749C6.44344,27.16785,0.96457,40.39523,0.96457,54.46458 s5.47888,27.29664,15.42747,37.2453c9.9485,9.94846,23.17583,15.42738,37.24521,15.42738 c5.30817,0,10.49612-0.78091,15.43371-2.28648V85.42873C64.42177,87.75552,59.18024,89.06772,53.63725,89.06772z"></path> </g> </g> </svg> 