<svg xmlns="http://www.w3.org/2000/svg" xmlns:xlink="http://www.w3.org/1999/xlink" width="500" zoomAndPan="magnify" viewBox="0 0 375 374.999991" height="500" preserveAspectRatio="xMidYMid meet" version="1.0"><defs><g/><clipPath id="359fbe3349"><path d="M 255.839844 279.246094 L 313.5625 279.246094 L 313.5625 336.964844 L 255.839844 336.964844 Z M 255.839844 279.246094 " clip-rule="nonzero"/></clipPath><clipPath id="0d65400c6c"><path d="M 284.699219 279.246094 C 268.761719 279.246094 255.839844 292.167969 255.839844 308.105469 C 255.839844 324.046875 268.761719 336.964844 284.699219 336.964844 C 300.640625 336.964844 313.5625 324.046875 313.5625 308.105469 C 313.5625 292.167969 300.640625 279.246094 284.699219 279.246094 Z M 284.699219 279.246094 " clip-rule="nonzero"/></clipPath></defs><rect x="-37.5" width="450" fill="#ffffff" y="-37.499999" height="449.999989" fill-opacity="1"/><rect x="-37.5" width="450" fill="#ffffff" y="-37.499999" height="449.999989" fill-opacity="1"/><g fill="#000000" fill-opacity="1"><g transform="translate(37.500002, 333.880171)"><g><path d="M 37.9375 -298.296875 L 157.4375 -298.296875 C 178.082031 -298.296875 196.472656 -295.023438 212.609375 -288.484375 C 228.742188 -281.941406 241.460938 -272.054688 250.765625 -258.828125 C 260.066406 -245.597656 264.71875 -229.097656 264.71875 -209.328125 C 264.71875 -187.816406 259.410156 -169.351562 248.796875 -153.9375 C 238.179688 -138.53125 223.929688 -126.753906 206.046875 -118.609375 C 188.171875 -110.472656 168.1875 -106.40625 146.09375 -106.40625 L 104.234375 -106.40625 L 104.234375 0 L 37.9375 0 Z M 104.234375 -151.765625 L 145.21875 -151.765625 C 160.925781 -151.765625 173.578125 -156.488281 183.171875 -165.9375 C 192.765625 -175.382812 197.5625 -187.816406 197.5625 -203.234375 C 197.5625 -219.222656 192.691406 -231.503906 182.953125 -240.078125 C 173.210938 -248.648438 160.054688 -252.9375 143.484375 -252.9375 L 104.234375 -252.9375 Z M 104.234375 -151.765625 "/></g></g></g><g clip-path="url(#359fbe3349)"><g clip-path="url(#0d65400c6c)"><path fill="#8c52ff" d="M 255.839844 279.246094 L 313.5625 279.246094 L 313.5625 336.964844 L 255.839844 336.964844 Z M 255.839844 279.246094 " fill-opacity="1" fill-rule="nonzero"/></g></g></svg>