<svg xmlns="http://www.w3.org/2000/svg" aria-labelledby="logoTitle logoDesc" viewBox="0 0 256 65"><defs><linearGradient id="a" x1="0%" x2="0%" y1="0%" y2="100%"><stop offset="0%" stop-color="#D97757"/><stop offset="100%" stop-color="#D97757"/></linearGradient></defs><path d="M21.401 34.291V56H7.207V-7.018h22.236q23.819 0 23.819 20.083 0 9.493-6.856 15.381-6.811 5.845-18.237 5.845zm0-30.41v19.643h5.581q11.338 0 11.338-9.931 0-9.712-11.338-9.712zM75.015 56H61.128V11h13.887Zm54.536-45-16.743 45h-15.82L81.034 11H95.89l7.822 27.73q1.318 4.702 1.538 7.998h.176q.307-3.12 1.626-7.735L115.049 11Zm26.499 46.099q-11.25 0-17.71-6.285-6.416-6.328-6.416-17.138 0-11.162 6.68-17.447 6.68-6.328 18.061-6.328 11.206 0 17.578 6.328 6.372 6.285 6.372 16.656 0 11.206-6.592 17.71-6.547 6.504-17.973 6.504zm.351-36.563q-4.922 0-7.646 3.384-2.725 3.384-2.725 9.58 0 12.964 10.46 12.964 9.975 0 9.975-13.316 0-12.612-10.064-12.612zm60.425 34.937q-3.076 1.626-9.272 1.626-14.678 0-14.678-15.25V21.24h-7.295V11h7.295V1.288l13.843-3.955V11h10.107v10.24H206.72v18.193q0 7.03 5.58 7.03 2.198 0 4.527-1.274zm37.178-31.949q-2.505-1.362-5.845-1.362-4.526 0-7.075 3.34-2.549 3.296-2.549 9.009V56h-13.887V11h13.887v8.35h.176q3.296-9.141 11.865-9.141 2.197 0 3.428.527z" aria-label="Pıvotr" class="word" style="font-style:normal;font-variant:normal;font-weight:700;font-stretch:normal;font-size:90px;line-height:normal;font-family:&quot;Segoe UI&quot;;fill:#181818" transform="translate(-6 8)"/><path d="m11.376 24-.6-.456-.336-.744.336-1.488.384-1.92.312-1.536.288-1.896.168-.624-.024-.048-.12.024-1.44 1.968-2.184 2.952-1.728 1.824-.408.168-.72-.36.072-.672.408-.576 2.376-3.048 1.44-1.896.936-1.08-.024-.144h-.048l-6.336 4.128L3 18.72l-.504-.456.072-.744.24-.24 1.896-1.32 4.728-2.64.072-.24-.072-.12h-.24l-.792-.048-2.688-.072-2.328-.096-2.28-.12-.576-.12-.528-.72.048-.36.48-.312.696.048 1.512.12 2.28.144 1.656.096 2.448.264h.384l.048-.168-.12-.096-.096-.096L6.96 9.84 4.416 8.16l-1.344-.984-.72-.504-.36-.456-.144-1.008.648-.72.888.072.216.048.888.696 1.896 1.464L8.88 8.616l.36.288.168-.096v-.072l-.168-.264-1.344-2.448-1.44-2.496-.648-1.032-.168-.624a2.53 2.53 0 0 1-.096-.72L6.288.144 6.696 0l1.008.144.408.36.624 1.416.984 2.232 1.56 3.024.456.912.24.816.096.264h.168v-.144l.12-1.728.24-2.088.24-2.688.072-.768.384-.912.744-.48.576.264.48.696-.072.432L14.76 3.6l-.576 2.904-.36 1.968h.216l.24-.264.984-1.296 1.656-2.064.72-.816.864-.912.552-.432h1.032l.744 1.128-.336 1.176-1.056 1.344-.888 1.128-1.272 1.704-.768 1.368.072.096h.168l2.856-.624 1.56-.264 1.824-.312.84.384.096.384-.336.816-1.968.48-2.304.456-3.432.816-.048.024.048.072 1.536.144.672.048h1.632l3.024.216.792.528.456.624-.072.504-1.224.6-1.632-.384-3.84-.912-1.296-.312h-.192v.096l1.104 1.08 1.992 1.8 2.52 2.328.12.576-.312.48-.336-.048-2.208-1.68-.864-.744-1.92-1.608h-.12v.168l.432.648 2.352 3.528.12 1.08-.168.336-.624.216-.648-.12-1.392-1.92-1.416-2.184-1.152-1.944-.12.096-.696 7.248-.312.36z" class="primary" style="fill:url(#a)" transform="matrix(.55 0 0 .55 242 51)"/></svg>