<svg xmlns="http://www.w3.org/2000/svg" width="500" height="500" aria-labelledby="logoTitle logoDesc" viewBox="0 0 60 60"><defs><linearGradient id="a" x1="0" x2="0" y1="0" y2="24" gradientUnits="userSpaceOnUse"><stop offset="0%" stop-color="#D97757"/><stop offset="100%" stop-color="#D97757"/></linearGradient></defs><text y="52" letter-spacing="-.5" style="font-style:normal;font-variant:normal;font-weight:700;font-stretch:normal;font-size:64px;line-height:normal;font-family:Inter,ui-sans-serif,system-ui,&quot;-apple-system&quot;,&quot;Segoe UI&quot;,Roboto,&quot;Helvetica Neue&quot;,Arial,&quot;Noto Sans&quot;,sans-serif;font:700 64px Inter,ui-sans-serif,system-ui,-apple-system,&quot;Segoe UI&quot;,Roboto,&quot;Helvetica Neue&quot;,Arial,&quot;Noto Sans&quot;,sans-serif;fill:currentColor" transform="translate(10)"><tspan x="0">P</tspan></text><path d="m11.376 24-.6-.456-.336-.744.336-1.488.384-1.92.312-1.536.288-1.896.168-.624-.024-.048-.12.024-1.44 1.968-2.184 2.952-1.728 1.824-.408.168-.72-.36.072-.672.408-.576 2.376-3.048 1.44-1.896.936-1.08-.024-.144h-.048l-6.336 4.128L3 18.72l-.504-.456.072-.744.24-.24 1.896-1.32 4.728-2.64.072-.24-.072-.12h-.24l-.792-.048-2.688-.072-2.328-.096-2.28-.12-.576-.12-.528-.72.048-.36.48-.312.696.048 1.512.12 2.28.144 1.656.096 2.448.264h.384l.048-.168-.12-.096-.096-.096L6.96 9.84 4.416 8.16l-1.344-.984-.72-.504-.36-.456-.144-1.008.648-.72.888.072.216.048.888.696 1.896 1.464L8.88 8.616l.36.288.168-.096v-.072l-.168-.264-1.344-2.448-1.44-2.496-.648-1.032-.168-.624a2.53 2.53 0 0 1-.096-.72L6.288.144 6.696 0l1.008.144.408.36.624 1.416.984 2.232 1.56 3.024.456.912.24.816.096.264h.168v-.144l.12-1.728.24-2.088.24-2.688.072-.768.384-.912.744-.48.576.264.48.696-.072.432L14.76 3.6l-.576 2.904-.36 1.968h.216l.24-.264.984-1.296 1.656-2.064.72-.816.864-.912.552-.432h1.032l.744 1.128-.336 1.176-1.056 1.344-.888 1.128-1.272 1.704-.768 1.368.072.096h.168l2.856-.624 1.56-.264 1.824-.312.84.384.096.384-.336.816-1.968.48-2.304.456-3.432.816-.048.024.048.072 1.536.144.672.048h1.632l3.024.216.792.528.456.624-.072.504-1.224.6-1.632-.384-3.84-.912-1.296-.312h-.192v.096l1.104 1.08 1.992 1.8 2.52 2.328.12.576-.312.48-.336-.048-2.208-1.68-.864-.744-1.92-1.608h-.12v.168l.432.648 2.352 3.528.12 1.08-.168.336-.624.216-.648-.12-1.392-1.92-1.416-2.184-1.152-1.944-.12.096-.696 7.248-.312.36z" shape-rendering="optimizeQuality" style="fill:url(#a)" transform="translate(36.5 41.5) scale(.4583)"/></svg>